/* XPM */
static char *dc63f943273f4e72c659c58054226d75zhia8epT6xqpWqo1[] = {
/* columns rows colors chars-per-pixel */
"64 64 52 1 ",
"  c gray15",
". c #2C2C2C",
"X c #313131",
"o c #343434",
"O c gray23",
"+ c #3E3E3E",
"@ c gray25",
"# c gray28",
"$ c #4B4B4B",
"% c #4C4C4C",
"& c #505050",
"* c gray34",
"= c gray35",
"- c #5F5F5F",
"; c #626262",
": c #646464",
"> c #6A6A6A",
", c #6D6D6D",
"< c gray44",
"1 c #777777",
"2 c #7B7B7B",
"3 c #7E7E7E",
"4 c #00DEFF",
"5 c #818181",
"6 c gray53",
"7 c #888888",
"8 c gray56",
"9 c #908F90",
"0 c gray57",
"q c #969596",
"w c #9B9B9B",
"e c #9F9F9F",
"r c gray64",
"t c #A4A4A4",
"y c #AAAAAA",
"u c gray67",
"i c #AFAFAF",
"p c gray69",
"a c gray71",
"s c #BBBBBB",
"d c gray75",
"f c #C0C0C0",
"g c gray78",
"h c #CBCBCB",
"j c gray80",
"k c LightGray",
"l c #D7D7D7",
"z c #DADADA",
"x c #DDDDDD",
"c c #E2E2E2",
"v c #E4E4E4",
"b c #E9E9E9",
/* pixels */
"$$$$%&#%$&%$&%$$%%#%$%%$%%$%#%$%$%#$%$%%$%$%%$#%%#$%$$&%%%&#%%#&",
">rryiysshdfjlzxvccvvvvzzlxjjggssitiitrrrteq80q8557336660008terr$",
"3wririisffgjjkhzvbcvcczxxljhfgadaiytytrereq00057672<77760q00rre$",
"2e3ytrysdas3yjkxvcvcc5tccxkjjjg1isyiiwetr2y008w5756>y22600082tr%",
"1y*2reysadd=1jhzzzvvc=3vczlzkhf;2aaiyiter-2wrq87665;:3560q0q-3r$",
"70rreryysaadkjkjzzcvcvbcblxxhjgdassityeterrrt880767152166568w7r%",
"68tetreyitiddgdjzxxzvvxvvvlzhkjjgaaiipeerrwteeq008766332677770q$",
"6qeeereiyiyahfgjzlzxccbccvccxzjjfggpsitpyrtwrt800q6671226666q00%",
"700rrrryyiysfgfghjzzvcvvcvcvzzjjgfgssyyyiererr000q6663223136090%",
"668eeeeriy,,>,>>,>,><>>:>>>,>,--;=-=;-;----;;--&$$$%%#731326670$",
"660w8qrryy>=-=;;=---=--:---;=-%%%$%%$$%$$%%$#$$O++@O@i523235650%",
"770807rryi>;4444444444444444444444444444444444444444td78521566q$",
"571yqq8tre>=4444444444444444444444444444444444444444pf7581531y6$",
"72=5000eet>-4444444444444444444444444444444444444444idq7572<-27;",
"356088qrrr>;4444444444444444444444444444444444444444yh067623527=",
"71667680re,=4444444444444444444444444444444444444444yf066632125;",
"63367780re,-4444444444444444444444444444444444444444es00q375722-",
"623566q8rr<-4444444444444444444444444444444444444444ra0q8866533=",
"7<16758800:=4444444444444444444444444444444444444444ta808367613-",
"6253235600,-4444444444444444444444444444444444444444esq8q087573-",
"72<1226700>-4444444444444444444444444444444444444444ese88q80q61-",
"66,i223508>-4444444444444444444444444444444444444444rsr0w8q01y3=",
"57*;533677>=4444444444444444444444444444444444444444raree000:16;",
"7667222256>-4444444444444444444444444444444444444444rarrr0q00q5;",
"6676222276>-4444444444444444444444444444444444444444rsrrerq8q05;",
"7058522366,-4444444444444444444444444444444444444444eareer8q8q6-",
"6066621322>-4444444444444444444444444444444444444444esiereqq800;",
"2q66625122,-4444444444444444444444444444444444444444esieeerer80-",
"3000673322>-4444444444444444444444444444444444444444rsyrrrerrq8;",
"30005@&%;1,-4444444444444444444444444444444444444444rsyyyreere0-",
"280q7 +%-2,-4444444444444444444444444444444444444444eayyyetret0*",
"2r3y8XO$>3:-4444444444444444444444444444444444444444rsiyyrwe3t0;",
"3r=30.+%>2>-4444444444444444444444444444444444444444rssyyywe;2e-",
"1rtw0oo&,5;$4444444444444444444444444444444444444444rsayyietwer=",
"2ret0.O$,6-#4444444444444444444444444444444444444444rssiiyeetre-",
"3ere8.+%<6;%4444444444444444444444444444444444444444rsdaayiytrr;",
"3eret.@$16=$4444444444444444444444444444444444444444esfddyyittr-",
"1rrtr .+,7=%4444444444444444444444444444444444444444esgdgayiyyr;",
"3trer0<<10-%4444444444444444444444444444444444444444rshffsiiiyr=",
"2ieerrr08q-#4444444444444444444444444444444444444444rshggaiyyyy-",
"2trrerr000-$4444444444444444444444444444444444444444eajjjgssaiy-",
"2y2yyet0q0-$4444444444444444444444444444444444444444rakjjfsd3ii-",
"2p=2erwre0;$4444444444444444444444444444444444444444tszjkfsd&1i=",
">tyirrteeq-$4444444444444444444444444444444444444444tdxjhjfggsy;",
",iyyyetere-%4444444444444444444444444444444444444444ifzjjhfffsi*",
">aiiitytrr-%4444444444444444444444444444444444444444igxllkfgfad-",
">sdayiyeee=$4444444444444444444444444444444444444444ygcxxljhkfa:",
">ssaitirrr-%4444444444444444444444444444444444444444ygczxxhkhfd=",
">fssyiyyie-$4444444444444444444444444444444444444444ygcvczjjhgf-",
">gfgayyytt-$4444444444444444444444444444444444444444yfvvclxzzjf;",
">f3ydyiipe$&4444444444444444444444444444444444444444igvcccxz2ik-",
">j=3sitiyt&$4444444444444444444444444444444444444444yfvvvbzz-1k=",
">jgfgssyyi$%4444444444444444444444444444444444444444ifcccvvvvzh:",
",hhffsayyi%#riyyyiyiyiiiyiyiyitteewrrrerrrrereryitytifbvvccbcxj*",
",zhkfadsai#igfghggfhfffffgggffsssdssasssasssssdfffggfgccvcvcczj;",
":xkhjgfsstiyeerereer08q0665322366668qrrrryiyisssfffkzxbccvcvvcz-",
">xhjkfgssyyiererrere00q87662232666600rerryiyysasffghxcvccvccvvz;",
":xzxhffsssayiyyrertr008q5673222266850rrerrriyyisggdkhzzxcvcbccx-",
",vlzzjjgdsdyyiyetrwer00q076652326653q8qqrertpyyasasdjxzzzccvcvc-",
";b2ixjjdffh3yitiertte3t00667822>y237600802treypisds3yjhjzcvv2iv-",
",x-2zjhhfgf=3ypyyieer;208665633->117680q8-5wtiyyyfp;3jkjxccb=1c-",
">bcvlxxhkffdtiiyiitrewreq007756331325q000reeeityyyisfjhjzzxlvvc;",
">xvvvlchhjhfdaaiyiytetrr0800066713227557000rertiiyidffhfjxxccvc-",
"$%%$$%@&%%%$$%$%$&$$%$#%%%%$$%#%%#%%$&%%%#%$&%#%%%$%$%$%%$%$%%$%"
};
