/* XPM */
static char *_4e6db950b094355f9fc18dfeb7193caVqPHvO8d2iDzUji1[] = {
/* columns rows colors chars-per-pixel */
"64 64 244 2 ",
"   c #010101",
".  c #0C0501",
"X  c #070A08",
"o  c #130C06",
"O  c #1A0D04",
"+  c #140E09",
"@  c #130503",
"#  c #15110C",
"$  c #1C140C",
"%  c #1F1007",
"&  c #0D1212",
"*  c #111514",
"=  c #1B1916",
"-  c #22150C",
";  c #241A0E",
":  c #291B0E",
">  c #231000",
",  c #231A13",
"<  c #2B1E12",
"1  c #261C18",
"2  c #311F14",
"3  c #1C201E",
"4  c #2B2115",
"5  c #2B241C",
"6  c #26231C",
"7  c #32251B",
"8  c #3A261A",
"9  c #2B2A27",
"0  c #382B23",
"q  c #383329",
"w  c #3D3A33",
"e  c #3C3C3C",
"r  c #363532",
"t  c #2F342F",
"y  c #52181D",
"u  c #49281E",
"i  c #422D22",
"p  c #492D25",
"a  c #4C3225",
"s  c #47352B",
"d  c #5C3A2D",
"f  c #55382B",
"g  c #4C3C33",
"h  c #423E37",
"j  c #523D33",
"k  c #5B3C32",
"l  c #502F26",
"z  c #62392B",
"x  c #693D33",
"c  c #642927",
"v  c #3F433F",
"b  c #44423B",
"n  c #4B453C",
"m  c #4B453B",
"M  c #53443A",
"N  c #5C463A",
"B  c #58402E",
"V  c #644234",
"C  c #64493D",
"Z  c #6C4B3C",
"A  c #694437",
"S  c #764A3C",
"D  c #74513E",
"F  c #454545",
"G  c #4E4A42",
"H  c #4C4C4C",
"J  c #4D4740",
"K  c #524D43",
"L  c #5C4D42",
"P  c #5B544B",
"I  c #57534A",
"U  c #525252",
"Y  c #5D5D5D",
"T  c #5E5B53",
"R  c #664D42",
"E  c #774C42",
"W  c #635245",
"Q  c #6C5345",
"!  c #6D5B4E",
"~  c #67574B",
"^  c #735346",
"/  c #7B5343",
"(  c #78594A",
")  c #6B5E52",
"_  c #735E52",
"`  c #7A5F52",
"'  c #5E605E",
"]  c #69655A",
"[  c #766457",
"{  c #626262",
"}  c #6B6B6B",
"|  c #6F6860",
" . c #746F67",
".. c #76746A",
"X. c #757575",
"o. c #7B7B7B",
"O. c #7A7B75",
"+. c #6D706B",
"@. c #823632",
"#. c #87443B",
"$. c #854844",
"%. c #845443",
"&. c #8B5C4B",
"*. c #875848",
"=. c #935C4D",
"-. c #965B51",
";. c #8C5D54",
":. c #97604E",
">. c #8C6354",
",. c #846B5A",
"<. c #8A6B5B",
"1. c #856557",
"2. c #946453",
"3. c #9C6554",
"4. c #9B6A55",
"5. c #9E6C5B",
"6. c #956A59",
"7. c #8E715F",
"8. c #8D6854",
"9. c #A36C5B",
"0. c #A46B58",
"q. c #A6725E",
"w. c #B17556",
"e. c #8B6E61",
"r. c #8B7366",
"t. c #937364",
"y. c #957B6A",
"u. c #997768",
"i. c #947D71",
"p. c #A47362",
"a. c #AB7463",
"s. c #AD7A65",
"d. c #AD7B6A",
"f. c #A57B6B",
"g. c #B37D6A",
"h. c #B47A68",
"j. c #A67D74",
"k. c #7F8179",
"l. c #888578",
"z. c #998375",
"x. c #A7826D",
"c. c #B4826E",
"v. c #B7846C",
"b. c #A98776",
"n. c #B38472",
"m. c #BC8D7A",
"M. c #B88976",
"N. c #BD927E",
"B. c #BA9179",
"V. c #C38E7D",
"C. c #C09077",
"Z. c #848584",
"A. c #8B8B8B",
"S. c #8B8D84",
"D. c #9A948A",
"F. c #939393",
"G. c #9D9D9D",
"H. c #989B94",
"J. c #8F9192",
"K. c #A4978B",
"L. c #BC9784",
"P. c #A89D93",
"I. c #B39A93",
"U. c #9EA19A",
"Y. c #A5A292",
"T. c #A9A696",
"R. c #ADAA9A",
"E. c #A6A69E",
"W. c #B1AD9D",
"Q. c #B1A297",
"!. c #B3B09F",
"~. c #B9A08F",
"^. c #A2A2A2",
"/. c #ABABAB",
"(. c #ABAEA5",
"). c #B7AEA2",
"_. c #AEB1A9",
"`. c #B6B3A3",
"'. c #B4B6AC",
"]. c #BCBAAA",
"[. c #B9B7AA",
"{. c #B5B5B5",
"}. c #BBBDB4",
"|. c #B9B9B9",
" X c #BEBEBE",
".X c #BABABA",
"XX c #B5B9B2",
"oX c #C39A85",
"OX c #CB9D8B",
"+X c #C69884",
"@X c #D19A8A",
"#X c #C78F83",
"$X c #CAA28C",
"%X c #D1A28D",
"&X c #D8A994",
"*X c #D9B19C",
"=X c #C9AB9B",
"-X c #E6B29D",
";X c #C1BEAF",
":X c #C5B4A7",
">X c #C2BEB0",
",X c #CABEB2",
"<X c #CEB1A7",
"1X c #E1B3A0",
"2X c #BEC1BA",
"3X c #BEC0B7",
"4X c #C4C2B2",
"5X c #C2C4BB",
"6X c #C6C9BF",
"7X c #CCCBBB",
"8X c #CAC5B8",
"9X c #D1CEBF",
"0X c #D2C3BD",
"qX c #D2D0BF",
"wX c #FCCBB3",
"eX c #C6C6C6",
"rX c #C3C3C3",
"tX c #C6CAC1",
"yX c #CACDC4",
"uX c #CDCDCD",
"iX c #CBCCCB",
"pX c #C8CBC6",
"aX c #D2CFC0",
"sX c #CBD0C6",
"dX c #CED2C9",
"fX c #D5D3C4",
"gX c #D2D4CC",
"hX c #DADACC",
"jX c #D7D8C8",
"kX c #D3D3D3",
"lX c #DDDED3",
"zX c #D9D9D9",
"xX c #DCDCDC",
"cX c #D3DBD3",
"vX c #E0DFD8",
"bX c #DAE3D9",
"nX c #E4E5D8",
"mX c #E2E2E2",
"MX c #E5E5E5",
"NX c #E3E3E3",
"BX c #E9E9E9",
"VX c #E0EBE4",
"CX c #F8FDF9",
"ZX c #ECF4EA",
/* pixels */
"H H H H H U F H H U H H U H H H H H F H H H H H H H H H F H H H H H F H H H H H H H H H H H F H H F H H H H U H H H U F H H F U ",
"} ^.^./././..X.XiX XrXiXzXzXxXNXmXmXNXNXNXNXzXzXzXxXiXiXeXeX.X.X/.^./.{.^.^.^.^.^.G.F.A.F.F.A.Z.Z.A.o.o.Z.Z.Z.F.F.F.A.^.G.^.^.H ",
"o.G.^./.^././..XrXrXeXiXiXkXiXzXNXBXmXNXmXmXzXxXxXzXiXiXrXeX{. X{././.^./.^.^.G.^.G.F.F.F.F.Z.A.Z.A.o.X.A.A.A.Z.F.F.F.F.^.^.G.H ",
"o.G.o./.^.^./..X X{..Xo./.iXkXxXNXmXNXmXmXZ.^.mXmXxXkXiXiXiXeXX./..X/././.G.G.^.^.o./.F.F.A.G.Z.A.Z.Z.} /.o.o.Z.F.F.F.A.o.^.^.H ",
"o./.U o.^.G./..X{. X XY X.iXiXzXzXzXNXNXmXY o.NXmXzXzXzXkXiXrX{ o.{.{./././.^.G.^.Y o.G.^.F.A.A.Z.Z.Z.{ { o.Z.Z.F.F.F.F.Y o.^.H ",
"A.F.^.^.G.^././..X{.{. XkXiXkXiXzXzXmXNXmXNXBXmXBXzXxXxXiXiXeX X.X.X.X/.^./.G.^.G.^.^.^.^.A.A.F.A.Z.A.X.Z.o.X.Z.Z.Z.Z.A.G.A.^.H ",
"Z.A.^.G.^.^.G././.^./. X XeX XiXzXxXxXzXNXNXxXNXNXNXzXzXiXkXiXiXeX{.{././.{.G.G.^.^.G.^.G.G.F.F.F.A.A.Z.Z.o.o.o.Z.A.A.A.A.F.F.H ",
"Z.F.^.G.G.^.G././././.{.iXrXeXiXzXzXzXxXmXmXBXmXmXNXmXmXxXzXiXiXrXeXeX{..X/.^.{./.^.^.G.^.^.A.F.F.F.Z.Z.A.X.o.o.Z.Z.Z.Z.F.F.F.H ",
"A.F.F.^.^.^.^././././..XrXeXrXeXiXiXzXzXNXmXNXNXmXNXmXNXzXzXiXiXeXrXeX.X.X/./././.G.^.G.^.^.F.F.F.F.Z.Z.Z.o.o.o.o.X.o.Z.F.A.F.H ",
"Z.Z.A.G.G.G.G.^././.} } } } } } } } } } X.} } { } } } } } } Y Y { Y Y Y { Y { Y Y Y Y { { Y Y U H H H H H F A.o.X.o.o.Z.Z.A.F.H ",
"Z.Z.F.G.A.F.^.^././.} Y Y Y { { Y Y Y Y Y Y Y { Y Y Y { Y Y H H H H H H H F H H H H H H F H H e e e F e F /.Z.o.o.o.o.Z.Z.Z.F.H ",
"A.A.F.A.F.A.^.^././.} { /.5XH...H.3X5X}.}.}.3XXXE.Y.l. ...l.l.[.].[.].}.[.[.[.].].).W.`.E.T.`.W.W.W.W.W.^. XA.A.Z.o.X.Z.Z.Z.F.H ",
"Z.A.X./.F.F.A.^.^.G.} Y O.E.6X(.O.H.}.}.}.'.'.5X}.D.O.] g I  .I P K K I m m P l.E.`.W.`.W.T.!.W.W.W.W.W.{.rXA.Z.A.X.Z.o.o./.Z.H ",
"A.o.Y Z.F.F.F.G.G.^.} Y U.O.H.6X_.k.H.}.5X'.(.XXS.T K q , o = , ; - O O - ; : 7 P K.>X`.`.T.R.W.R.R.R.R./. XF.A.Z.A.o.X.Y X.A.{ ",
"o.Z.Z.F.A.A.F.^.^.^.} { tX_.l.F.3X'.l.F.5X5XS.P 7 4 $     o o $ , $ $ , 4 4 4 4 < q l.].`.T.T.!.R.R.R.T./.iXF.Z.A.Z.o.o.Z.o.A.Y ",
"A.X.Z.Z.A.Z.A.F.^.G.} Y }.tXXXA.U.}.'.XX_.] 4 O ; - . - f N B u # o o # , $ , < 5 7 q l.].T.D.T.Y.Y.Y.K./.rXF.Z.Z.Z.o.o.X.o.Z.{ ",
"Z.o.o.Z.A.A.A.F.^.G.} Y .X}.2X.X(.XXyX_.K . . o $ $ i *.4.4.2.%.a : ; % # # O o % 4 < q D.!.Y.T.T.R.W.W.G..XF.F.F.o.A.Z.A.o.o.Y ",
"Z.o.o.Z.Z.Z.F.A.^.^.+.Y XX.X}.2X}.2XE.n # + + + o i / 2.5.9.4.2.S u 8 8 ; o O - , - - O ] qX4X].].].[.[.^.{.F.F.A.A.Z.Z.Z.o.o.Y ",
"A.X.X.Z.A.Z.A.A.F.F.{ Y '.XXXXXX}.2X .o . 1 , # % d :.9.q.a.q.4.&.A f a 8 2 ; - , 7 < ; 7 Y.fX[.].].[.[.^.{.A.F.A.o.Z.A.Z.X.o.Y ",
"Z.o.Z.o.o.o.Z.Z.F.F.} Y _.(.(.'.}.XXn   o , # - f 2.h.g.v.c.h.a.4.=.%.A d a 2 - O - 4 < : m ].8X].].].].^..XF.A.F.F.A.A.Z.A.o.Y ",
"A.o.X.X.o.o.Z.A.F.F.} Y '.XX}.}.6X6Xh   . + $ a 4.M.g.v.v.g.s.a.9.9.=.S A V 8 2 < - ; : 7 < l.jX].].].].G..XG.A.A.F.A.F.F.Z.X.Y ",
"Z.Z.} /.o.o.o.Z.F.A.} Y }.}.2X5XtXhXI   o + < / v.M.g.h.a.q.9.9.9.9.2.%.x A z p C Q Q a : 4 W 4X4X;X;X].^..X^.F.G.A.F.F.X./.o.Y ",
"Z.A.U { Z.o.o.Z.A.A.} Y }.}.5X5XyXyXG . 1 $ 8 >.V.M.g.g.s.q.0.9.9.9.3.:.S d z f d ^ 1.[ 8 : g W.7X;X;X;X^.{.^.G.G.F.F.F.{ X.Z.{ ",
"A.Z.Z.A.o.o.o.o.Z.Z.} Y }.2X5X5XgXXX6 + 5 1 0 d.&X+Xs.d.g.v.g.h.s.a.9.9.0.3.;.&.>.6.f.f.a < 8 P.jX>X;X;X^.{.^.^.^.F.F.F.F.F.Z.{ ",
"Z.Z.A.Z.o.o.o.o.A.Z.} Y }.5X5X6XnXZ.o 5 6 # C -XM.R 0 0 g ( 6.p.h.s.a.s.a.V.@X#X@X&X&XV.f : O  .hX4X>X;X^..X^.^.G.^.F.A.F.F.Z.{ ",
"A.F.Z.A.Z.o.o.o.Z.Z.} Y 2X5X5XtXlX{ # r = i +XB.g i s 0 ; @ O l *.9.a.a.p.u.t.M.+XOX&X-Xt.-   K jX8X4X>XG.{.^.G.G.^.A.F.A.F.Z.Y ",
"Z.F.Z.Z.Z.o.X.o.o.o.} Y 2X5X6XtXbXX.# = = x.1Xy.1.5.p.9.=.V l l S 9.s.2.V i $ 1 0 s r.wX$X-   5 ].9X4X4XG..X/.G.^.G.F.F.A.F.F.{ ",
"o.F.Z.Z.Z.o.Z.X.o.o.} Y 5X6XtXyXlX/.9 X 0 %X&XL.p.p.&.A Z A S / 2.a.M.c.Z f p p j 0 $ b.M.. # I >X7X4X4XG..X/.G.G.G.^.G.^.A.F.Y ",
"o.F.F.F.Z.A.o.o.o.o.} Y 5X6XyXyXiXvXr.  j &XoXM.&.d g $ = j p x 3.q.M.N./ z x *.p.n._ ~ u.0 $ T fX4X;X;X^..X/.^.^.^.G.^.^.F.A.{ ",
"o.F.F.F.Z.F U H { X.} Y 5XyXyXyXcX0XE # [ &Xm.p.*.V R p i x u A h.q.g.n.f 8 1 O a 6.M.x.b.7 X I ;X4X4X;X^..X/././.^.^.G.^.G.F.Y ",
"o.A.F.F.A.9 e H Y o.} Y 5XyXyXyXbXI.c M b.&Xn.5.q.q.&./ x l S d.+X0.h.%X/ p 8 , g 8 %.&XL.o = Y.4X4X4X4XG.{./././.G.^.^.G.^.F.U ",
"o.^.o./.A.t e H } o.{ Y tXyXyXyXbXI.$.u.$X%Xm.a.9.5.2.*.S *.g.+XV.0.v.*XL.E z Q 8.<.6.&X$X1 ..jX7X4X4X4X^..X/././.^.G.G.o.^.F.{ ",
"o.^.Y o.F.9 e H } o.} Y tXyXyXyXbX:X#.p.*XOX+XM.9.=.*.*.3.s.V.V.s.-.q.%X*Xn.*.2.p.N.c.+XN.P 5XfX8X8X8X8X^..X.X/././.G.G.{ o.G.Y ",
"X.^.^.G.F.r r U } Z.{ H tXyXyXyXcX,X@.*.1XOX#Xg.a.3.2.3.9.2.9.V.s.3.a.N.OX#Xp.2.p.d.s.+XM.D.nX7X7X7X7X7X^..X{./././.G.^.G.G.^.Y ",
"o.^.G.^.F.9 e H } Z.Y F yXyXyXyXcX0X-.;.=XOXM.d.g.a.9.3.=.#.h.@XM.0.m.*Xd.a.n.a.3.q.m.&X%X,XjX7X9X9X9X9X^..X.X/././.G.G.^.^.G.Y ",
"o.G.^.G.A.9 e H X.Z.{ H yXyXyXyXiXdXj.p.K.L.n.n.n.s.9.3.*.S a.x S 2.*.c.p.%.g.v.s.s.oX&X*XjXfXfX9X9XaXaX^..X X{.{./././.^.^.^.{ ",
"o.G.^.G.^.9 F H X.Z.Y H yXpXyXyXyXbX=X-.b.b.b.n.n.p.0.-.*.S z u z E u x =.%.9.g.m.B.N.%X=XfXjXfXfXfXfXfXG..XrX X X/././.^.^.^.Y ",
"X.^.^.^.^.9 9 e } A.Y H yXyXyXdXdXbX:X#.u.i.j.M.f.5.2./ ^ ^ j j B k N C 2.4.3.h.m.oXL.+X=XjXjXjXjXjXfXjXG..XeX XeX{././././.^.{ ",
"o.^.^.G.^.F.X.X.X.F.Y H yXsXsXdXgXgXgX).b.r.y.b.f.6.( ! W N M j s s M m ) <.3.s.m.L.oXm.:XbXjXjXjXjXjXjX^..XiXrXrX.X/./././.^.Y ",
"o./.G.G.^.^.^.F.A.F.Y F sXdXdXgXgXdXgXZXW.e.r.u.t.8._ ) ~ ~ ` 1.Q N ~ W M ~ <.5.n.L.L.b.7XbXjXjXjXjXjXjX^..XiXeXeX{./././././.Y ",
"o.^.^.^.G.^.^.F.F.F.Y H sXdXdXgXgXdXdXbX[.t.r.,.e.<._ R B Z x x E S E <.[ ] [ t.M.L.t.K.nXlXlXlXlXbXhXjXG.{.iXiXiXeX.X.X{././.Y ",
"o./.o././.G.^.F.F.F.Y H tXgXZXZXcXyXdXcXsXr.1.e.r.1.C f V x c y y y y c ^ [ r.y.b.y.e.jXCXnXnXnXnXnXlXhX^.{.kXiXiXrX.X Xo././.Y ",
"o.{.Y o.G.^.G.^.G.F.{ H bXlXS.S.cXbXsXdXbXP.^ r.t.( j C <.>.*.*.$.$.-.;.( j ! z.t.y.r.] ] ] ] ] ] T O.hX^..XzXiXkXrX.X XU X./.Y ",
"} /././.^.^.^.G.G.F.Y H rXe     r nXZXnXCXyX[ ,.<.Q N Q Q C B j f V Q 7.z.W R y.y.y.n 9 q q q q q r ' hX^. XxXuXiXiXrXeXeX.X/.{ ",
"} /./././.G.^.G.^.G.Y H /.= $ 4   K ] n k.nXz._ ,.Q N N C C d 8 2 p j N _ ! ! y.y.~ w K G n G G K I X.hX/.rXzXiXiXiXrXrXrX.X/.U ",
"} {./././.^./.^.^.^.Y H cXi.S ( q : O     | oX_ [ ~ W ~ W R Z k d Z ^ ^ W W ! ,.[ J n G n n n G G I ..jX/.eXxXzXzXzXrXeXrX{. XY ",
"} .X X{./././.G.G.G.Y H VXr.z 9 * = * * X # B.r.L ~ [ ~ W Q ^ ^ Q ^ ` ) ) ! [ ,.u.n w h b b b b n H +.gX/.eXmXxXxXzXiXiXkXrX{.{ ",
"} .X.X{./.^./.^.^.^.Y H pX~ > * & & & * X = b.b.[ L L W L N C R R ~ _ ) _ ~ ! x.x.9 q 9 q h h h b F { sX/.eXmXzXxXxXiXkXiXeX XY ",
"} rX.X.X/././././.G.Y H Z.Z.P * & * * * & X u.B.,.! n M N M M g j N ~ [ W L _ n.oXw 1 5 9 w w w w b Y 6X/.eXmXNXmXzXiXiXiXeXrXY ",
"} eXrXeX{./././.^.^.Y H A.}.F.* X * * *     z.oX7.<.Q g s s s q s j M M M Q 1.B.$XE.q . # 9 6 5 q b Y 6X/.rXNXNXmXzXxXzXzXiXrX{ ",
"} rXo./. X/././.{.G.H U = { l.* & * *   & | $XN.u.1.( V s i 8 0 0 s g N Z ( p.C.M.CXiX| | ] ) I h 9 t }./.eXNXmXmXmXxXzXo./.kXY ",
"} iXY o..X/.^././.^.U H     b 3 &     * [ r.L.oXn.t.( D Z V k V Z C Z D / 6.v.w.I.CXnXQ.,X).D.P.K. .w (./.rXNXNXNXBXzXzXY X.kXY ",
"} iXeXrXeX.X.X/././.H H   X X     F J.[.d s L.OXM.x.>./ E Z / / ( / / *.5.d.v.4.tXCX>Xl.D.).z.l.K.P.K.D./.rXmXmXmXNXNXNXNXzXiX{ ",
"} iXiXrXrX.X{./././.H F ^./././././././././././././././././.^.^.G.G.G.^.^.^.G.E.^.^.^.G.^.G.^././.^./.^./.rXBXNXNXmXmXBXmXxXiXU ",
"} zXiXkXrX{. X.X{./.F /.eXrXeXiXeXeXrXiXrXrXrXrXrXeXeXeXrXrX.X.X.X X.X.X{.}.}..X{..X.X.X.X.X XrXrXrXeXeXrXeXmXmXNXNXNXNXmXzXiX{ ",
"{ xXkXiXiXeXrX.X.X^././.G.^.^.G.^.G.G.^.F.A.F.F.Z.Z.Z.o.o.o.o.Z.Z.Z.Z.A.F.E.^.^.^././././..X.X.XrXrXrXkXzXxXBXmXmXBXmXNXNXmXzXY ",
"} xXiXiXkXrXeX.X.X/././.G.^.G.^.^.G.^.G.F.F.F.A.A.Z.Z.o.o.o.o.Z.Z.Z.Z.F.F.^.G.^.^././././..X{..XrXrXeXiXxXmXNXmXmXNXmXmXNXNXzX{ ",
"{ xXzXxXiXrXrX.X.X.X{././././.^.G.^.^.^.F.F.A.F.Z.Z.A.o.o.o.o.o.Z.Z.A.Z.F.^.^.G.^.^.^././././..XeXeX XkXiXzXzXxXmXNXmXBXmXmXxXY ",
"} NXzXzXzXiXiXeXrX.X.X^./././.G.^.^.G.G.^.F.F.F.F.A.Z.Z.Z.o.o.o.Z.A.Z.o.F.A.F.F.^.^.^.^.{././.{..X{..X XiXxXzXzXzXmXmXNXmXNXmXY ",
"{ BXo./.xXiXiX XrXrXiXo././.^./.^.^.^.^.G.o.^.F.F.Z.Z.A.A.o.o.} /.o.o.A.Z.F.F.A.F.o./.^.G./.{./..X X.Xo./.iXiXiXzXmXNXNXo./.NXY ",
"} xXY o.zXiXiXiXrXeXrXY o./.{./././.G.G.^.{ o.F.A.Z.Z.Z.Z.o.o.Y } X.X.A.Z.A.F.F.F.Y Z.G.^././././.rX{.{ o.iXkXiXxXmXmXBXY X.mXY ",
"} BXmXNXzXxXxXiXkXrXrX X^././././././.^.G.G.^.G.F.F.F.A.A.Z.Z.o.o.X.o.o.Z.H.F.F.F.^.G.G.G./.^././././..XrXiXiXiXzXzXxXzXNXNXmX{ ",
"} xXNXNXNXzXmXiXiXiXiX X X{.{././././.^.G.^.^.^.F.A.F.F.F.Z.Z.A.X.o.o.o.A.Z.Z.A.F.F.F.^.G.^.^././././. XrXrXiXrXiXxXxXmXmXNXmXY ",
"H H H H H H F U H H H H H H H H H U H H H H F H H H H H H H F H H F H H H U H H H F H H U H F H H H H H H H H H H H H H H H H H "
};
